
      <svg data-logo="logo" xmlns="http://www.w3.org/2000/svg" viewBox="0 0 141 42" height="40" width="141" fill="none">
        <g id="logogram" transform="translate(0, 1) rotate(0) "><path d="M12.2749 24.7064V34.7473C12.2749 35.1322 12.122 35.5014 11.8498 35.7734C11.5778 36.0456 11.2086 36.1985 10.8237 36.1985C10.4388 36.1985 10.0697 36.0456 9.79748 35.7734C9.52528 35.5014 9.37238 35.1322 9.37238 34.7473V24.7203C9.77651 25.0154 10.2609 25.1801 10.7612 25.1925C11.3064 25.208 11.8407 25.0365 12.2749 24.7064ZM24.6351 21.8038C24.2668 21.8038 23.9135 21.9502 23.6531 22.2106C23.3927 22.471 23.2463 22.8243 23.2463 23.1926V24.9425C23.2463 25.3275 23.3992 25.6966 23.6714 25.9687C23.9434 26.2409 24.3126 26.3938 24.6976 26.3938C25.0825 26.3938 25.4517 26.2409 25.7237 25.9687C25.9959 25.6966 26.1488 25.3275 26.1488 24.9425V23.2621C26.1597 23.0629 26.1274 22.8638 26.0544 22.6782C25.9813 22.4927 25.8693 22.3249 25.7255 22.1866C25.5819 22.0483 25.4101 21.9424 25.2221 21.8763C25.0339 21.8104 24.8337 21.7856 24.6351 21.8038ZM6.21985 28.5116C5.72012 28.4966 5.23635 28.3322 4.83107 28.0395V38.1081C4.83107 38.4949 4.98469 38.8658 5.25817 39.1393C5.53164 39.4127 5.90254 39.5663 6.28928 39.5663C6.67603 39.5663 7.04693 39.4127 7.3204 39.1393C7.59388 38.8658 7.7475 38.4949 7.7475 38.1081V28.1089C7.294 28.4021 6.75891 28.5432 6.21985 28.5116ZM20.1076 18.7902C19.9195 18.7807 19.7314 18.8098 19.5548 18.8753C19.3783 18.9409 19.2169 19.0417 19.0804 19.1715C18.944 19.3015 18.8355 19.4578 18.7614 19.631C18.6873 19.8041 18.6491 19.9907 18.6494 20.179V27.9145C18.6494 28.3012 18.803 28.6722 19.0765 28.9456C19.3501 29.2191 19.7209 29.3727 20.1076 29.3727C20.4944 29.3727 20.8654 29.2191 21.1388 28.9456C21.4123 28.6722 21.5659 28.3012 21.5659 27.9145V20.2762C21.577 20.0758 21.5445 19.8754 21.4706 19.6887C21.3967 19.5021 21.2834 19.3336 21.1381 19.195C20.9928 19.0564 20.8194 18.9509 20.6295 18.8859C20.4397 18.8207 20.2379 18.7975 20.0382 18.818L20.1076 18.7902ZM15.4969 21.7622C14.9737 21.7586 14.4646 21.5937 14.0387 21.29V31.3864C14.0387 31.7732 14.1923 32.1441 14.4657 32.4176C14.7393 32.691 15.1101 32.8446 15.4969 32.8446C15.8837 32.8446 16.2545 32.691 16.5281 32.4176C16.8015 32.1441 16.9551 31.7732 16.9551 31.3864V21.3039C16.5146 21.632 15.9767 21.8031 15.4275 21.79L15.4969 21.7622ZM3.06732 29.4977V1.29157C3.06366 0.947745 2.92451 0.619271 2.68008 0.377443C2.43566 0.135614 2.1057 -1.38867e-05 1.76186 1.06644e-09H1.45633C1.1125 -1.38867e-05 0.782538 0.135614 0.538112 0.377443C0.293687 0.619271 0.154531 0.947745 0.150879 1.29157V29.4977C0.150879 29.8439 0.288424 30.176 0.533238 30.4208C0.778052 30.6656 1.11011 30.8031 1.45633 30.8031H1.76186C2.1081 30.8031 2.44014 30.6656 2.68496 30.4208C2.92978 30.176 3.06732 29.8439 3.06732 29.4977ZM6.37261 27.4423H6.06708C5.72086 27.4423 5.3888 27.3048 5.14399 27.06C4.89917 26.8151 4.76163 26.4831 4.76163 26.1368V4.65241C4.76529 4.30861 4.90444 3.9801 5.14886 3.73829C5.39329 3.49646 5.72325 3.36083 6.06708 3.36085H6.37261C6.71644 3.36083 7.0464 3.49646 7.29083 3.73829C7.53525 3.9801 7.67441 4.30861 7.67806 4.65241V26.1646C7.67806 26.5108 7.54052 26.8429 7.29571 27.0877C7.05089 27.3326 6.71883 27.4701 6.37261 27.4701V27.4423ZM10.9695 24.137H10.6501C10.3076 24.137 9.97899 24.0009 9.73679 23.7587C9.49459 23.5165 9.35849 23.188 9.35849 22.8454V7.98548C9.35668 7.8147 9.38876 7.64526 9.45278 7.48695C9.51681 7.32865 9.61166 7.18463 9.73179 7.06322C9.85192 6.94182 9.99497 6.84543 10.1526 6.77966C10.3102 6.71389 10.4792 6.68002 10.6501 6.68003H10.9695C11.3133 6.6837 11.6418 6.82284 11.8836 7.06726C12.1255 7.31169 12.261 7.64165 12.261 7.98548V22.8454C12.261 23.188 12.1249 23.5165 11.8827 23.7587C11.6405 24.0009 11.3121 24.137 10.9695 24.137ZM15.5663 20.7345H15.2747C14.9308 20.7345 14.6009 20.5989 14.3564 20.357C14.112 20.1152 13.9728 19.7868 13.9692 19.4429V11.4435C13.9578 11.2652 13.9831 11.0865 14.0437 10.9183C14.1041 10.7503 14.1985 10.5962 14.3209 10.4661C14.4432 10.3359 14.591 10.2323 14.7551 10.1614C14.9192 10.0907 15.096 10.0543 15.2747 10.0548H15.5802C15.9264 10.0548 16.2585 10.1923 16.5033 10.4371C16.7482 10.6819 16.8857 11.014 16.8857 11.3602V19.4151C16.8875 19.5878 16.8551 19.759 16.7903 19.919C16.7255 20.079 16.6297 20.2245 16.5082 20.3473C16.3868 20.4699 16.2424 20.5673 16.083 20.6338C15.9237 20.7003 15.7528 20.7345 15.5802 20.7345H15.5663ZM20.1771 17.7486H19.8715C19.5253 17.7486 19.1933 17.6111 18.9484 17.3663C18.7036 17.1214 18.5661 16.7894 18.5661 16.4432V14.3739C18.5697 14.03 18.7089 13.7016 18.9533 13.4598C19.1977 13.2178 19.5277 13.0823 19.8715 13.0823H20.1771C20.5209 13.0823 20.8509 13.2178 21.0953 13.4598C21.3398 13.7016 21.4789 14.03 21.4825 14.3739V16.4432C21.4825 16.787 21.347 17.117 21.1051 17.3614C20.8633 17.6058 20.5348 17.745 20.191 17.7486H20.1771Z" fill="#394149"/></g>
        <g id="logotype" transform="translate(33, 10)"><path fill="#111111" d="M20.49 3.31L7.62 3.31Q7.14 3.31 6.79 2.98Q6.45 2.65 6.45 2.14L6.45 2.14Q6.45 1.63 6.79 1.32Q7.14 1 7.62 1L7.62 1L20.49 1Q21 1 21.33 1.32Q21.66 1.63 21.66 2.14L21.66 2.14Q21.66 2.65 21.33 2.98Q21 3.31 20.49 3.31L20.49 3.31ZM14.04 22.30L14.04 22.30Q13.53 22.30 13.18 21.94Q12.84 21.58 12.84 21.07L12.84 21.07L12.84 2.29L15.30 2.29L15.30 21.07Q15.30 21.58 14.96 21.94Q14.61 22.30 14.04 22.30ZM24.33 22.30L24.33 22.30Q23.82 22.30 23.47 21.93Q23.13 21.55 23.13 21.04L23.13 21.04L23.13 7.48Q23.13 6.97 23.47 6.61Q23.82 6.25 24.33 6.25L24.33 6.25Q24.84 6.25 25.20 6.61Q25.56 6.97 25.56 7.48L25.56 7.48L25.56 9.52L25.26 8.92Q25.56 8.29 26.17 7.63Q26.79 6.97 27.67 6.54Q28.56 6.10 29.73 6.10L29.73 6.10Q30.36 6.10 30.73 6.43Q31.11 6.76 31.11 7.27L31.11 7.27Q31.11 7.78 30.75 8.14Q30.39 8.50 29.85 8.50L29.85 8.50Q28.59 8.50 27.63 9.03Q26.67 9.55 26.11 10.38Q25.56 11.20 25.56 12.10L25.56 12.10L25.56 21.04Q25.56 21.55 25.20 21.93Q24.84 22.30 24.33 22.30ZM37.41 22.45L37.41 22.45Q35.73 22.45 34.52 21.84Q33.30 21.22 32.66 20.17Q32.01 19.12 32.01 17.83L32.01 17.83Q32.01 15.97 33.41 14.64Q34.80 13.30 37.89 12.94L37.89 12.94Q39.18 12.79 40.11 12.61Q41.04 12.43 41.56 12.01Q42.09 11.59 42.09 10.78L42.09 10.78Q42.09 10.15 41.77 9.60Q41.46 9.04 40.75 8.68Q40.05 8.32 38.88 8.32L38.88 8.32Q37.32 8.32 36.54 8.94Q35.76 9.55 35.46 10.15L35.46 10.15Q35.25 10.54 34.95 10.75Q34.65 10.96 34.23 10.96L34.23 10.96Q33.72 10.96 33.45 10.64Q33.18 10.33 33.18 9.85L33.18 9.85Q33.18 9.28 33.57 8.63Q33.96 7.99 34.73 7.41Q35.49 6.82 36.59 6.46Q37.68 6.10 39.09 6.10L39.09 6.10Q41.13 6.10 42.31 6.87Q43.50 7.63 44.01 8.94Q44.52 10.24 44.52 11.83L44.52 11.83L44.52 19.30Q44.52 19.60 44.59 19.75Q44.67 19.90 44.88 19.93L44.88 19.93Q45.30 19.96 45.60 20.27Q45.90 20.59 45.90 21.07L45.90 21.07Q45.90 21.58 45.49 21.94Q45.09 22.30 44.37 22.30L44.37 22.30Q43.47 22.30 42.97 21.77Q42.48 21.25 42.48 20.47L42.48 20.47L42.48 19.96L42.39 19.96Q41.64 21.07 40.42 21.76Q39.21 22.45 37.41 22.45ZM37.44 20.23L37.44 20.23Q38.79 20.23 39.85 19.66Q40.92 19.09 41.53 18.13Q42.15 17.17 42.15 16L42.15 16L42.15 13.96Q42.15 13.90 42.10 13.88Q42.06 13.87 41.97 13.99L41.97 13.99Q41.52 14.35 40.75 14.54Q39.99 14.74 39.21 14.86Q38.43 14.98 37.92 15.07L37.92 15.07Q36.36 15.31 35.38 15.91Q34.41 16.51 34.41 17.71L34.41 17.71Q34.41 18.61 35.10 19.42Q35.79 20.23 37.44 20.23ZM54.45 22.45L54.45 22.45Q52.29 22.45 50.83 21.31Q49.38 20.17 48.64 18.31Q47.91 16.45 47.91 14.32L47.91 14.32Q47.91 12.07 48.69 10.21Q49.47 8.35 50.98 7.23Q52.50 6.10 54.66 6.10L54.66 6.10Q55.92 6.10 56.86 6.48Q57.81 6.85 58.47 7.44Q59.13 8.02 59.49 8.68L59.49 8.68L59.25 8.74L59.25 1.33Q59.25 0.82 59.59 0.46Q59.94 0.10 60.45 0.10L60.45 0.10Q60.96 0.10 61.30 0.46Q61.65 0.82 61.65 1.33L61.65 1.33L61.65 20.98Q61.65 21.52 61.30 21.89Q60.96 22.27 60.45 22.27L60.45 22.27Q59.94 22.27 59.59 21.89Q59.25 21.52 59.25 20.98L59.25 20.98L59.25 19.57L59.46 19.60Q59.13 20.35 58.42 21.00Q57.72 21.64 56.71 22.05Q55.71 22.45 54.45 22.45ZM54.93 20.20L54.93 20.20Q57.06 20.14 58.21 18.55Q59.37 16.96 59.37 14.32L59.37 14.32Q59.37 11.56 58.18 9.94Q57.00 8.32 54.84 8.32L54.84 8.32Q52.74 8.32 51.52 9.93Q50.31 11.53 50.31 14.29L50.31 14.29Q50.31 17.05 51.52 18.64Q52.74 20.23 54.93 20.20ZM72.15 22.45L72.15 22.45Q70.17 22.45 68.53 21.55Q66.90 20.65 65.92 18.85Q64.95 17.05 64.95 14.41L64.95 14.41Q64.95 11.89 65.85 10.03Q66.75 8.17 68.29 7.13Q69.84 6.10 71.82 6.10L71.82 6.10Q73.35 6.10 74.58 6.69Q75.81 7.27 76.66 8.28Q77.52 9.28 77.98 10.53Q78.45 11.77 78.45 13.12L78.45 13.12Q78.45 13.99 78.12 14.52Q77.79 15.04 76.77 15.04L76.77 15.04L67.41 15.04Q67.53 16.87 68.19 18.01Q68.85 19.15 69.85 19.68Q70.86 20.20 72.06 20.20L72.06 20.20Q73.68 20.20 74.64 19.45Q75.60 18.70 75.96 17.68L75.96 17.68Q76.11 17.32 76.36 17.07Q76.62 16.81 77.07 16.81L77.07 16.81Q77.58 16.81 77.88 17.19Q78.18 17.56 78.15 18.16L78.15 18.16Q78.12 18.76 77.73 19.50Q77.34 20.23 76.60 20.91Q75.87 21.58 74.76 22.02Q73.65 22.45 72.15 22.45ZM67.44 12.97L67.44 12.97L76.14 12.97Q75.93 10.93 74.82 9.63Q73.71 8.32 71.79 8.32L71.79 8.32Q70.08 8.32 68.89 9.49Q67.71 10.66 67.44 12.97ZM82.95 22.30L82.95 22.30Q82.44 22.30 82.09 21.93Q81.75 21.55 81.75 21.04L81.75 21.04L81.75 7.48Q81.75 6.97 82.09 6.61Q82.44 6.25 82.95 6.25L82.95 6.25Q83.46 6.25 83.82 6.61Q84.18 6.97 84.18 7.48L84.18 7.48L84.18 9.52L83.88 8.92Q84.18 8.29 84.79 7.63Q85.41 6.97 86.29 6.54Q87.18 6.10 88.35 6.10L88.35 6.10Q88.98 6.10 89.35 6.43Q89.73 6.76 89.73 7.27L89.73 7.27Q89.73 7.78 89.37 8.14Q89.01 8.50 88.47 8.50L88.47 8.50Q87.21 8.50 86.25 9.03Q85.29 9.55 84.73 10.38Q84.18 11.20 84.18 12.10L84.18 12.10L84.18 21.04Q84.18 21.55 83.82 21.93Q83.46 22.30 82.95 22.30ZM106.08 22.30L106.08 22.30Q105.48 22.30 105.12 21.79L105.12 21.79L91.86 2.59Q91.65 2.23 91.65 1.90L91.65 1.90Q91.65 1.39 91.99 1.05Q92.34 0.70 92.82 0.70L92.82 0.70Q93.45 0.70 93.81 1.21L93.81 1.21L107.07 20.41Q107.28 20.71 107.28 21.07L107.28 21.07Q107.28 21.58 106.93 21.94Q106.59 22.30 106.08 22.30ZM106.95 2.56L100.08 12.40L98.49 10.54L105.00 1.18Q105.33 0.70 105.96 0.70L105.96 0.70Q106.47 0.70 106.81 1.05Q107.16 1.39 107.16 1.90L107.16 1.90Q107.16 2.23 106.95 2.56L106.95 2.56ZM92.28 22.30L92.28 22.30Q91.80 22.30 91.44 21.94Q91.08 21.58 91.08 21.07L91.08 21.07Q91.08 20.71 91.29 20.41L91.29 20.41L98.25 10.42L99.81 12.34L93.27 21.76Q92.94 22.30 92.28 22.30Z"/></g>
        
      </svg>
    